<svg width="1080" height="1080" viewBox="0 0 1080 1080" fill="none" xmlns="http://www.w3.org/2000/svg">
<rect width="1080" height="1080" fill="#F7F5F1"/>
<path d="M299.616 536.956C299.616 572.471 270.824 601.262 235.308 601.262C199.792 601.262 171 572.471 171 536.956C171 501.442 199.792 472.651 235.308 472.651C270.824 472.651 299.616 501.442 299.616 536.956Z" fill="#00786E"/>
<path d="M416.353 383.128H614.724C617.902 383.128 620.852 382.674 623.576 381.766C626.3 380.707 628.645 379.648 630.612 378.589C632.73 377.53 634.092 377 634.698 377C635.151 377 635.53 377.227 635.832 377.681C636.135 378.135 636.438 379.497 636.74 381.766L651.039 468.919C651.342 469.978 651.418 470.81 651.266 471.415C651.115 471.869 650.812 472.248 650.358 472.55C649.904 472.55 649.451 472.399 648.997 472.096C648.543 471.794 648.089 471.34 647.635 470.735C637.799 446.828 628.796 428.974 620.625 417.172C612.455 405.219 604.662 397.275 597.248 393.341C589.985 389.256 582.722 387.213 575.459 387.213H548.222V688.616C548.222 690.432 548.979 691.794 550.492 692.702C552.005 693.609 554.199 694.366 557.074 694.971L575.459 697.695C577.274 697.997 578.182 698.603 578.182 699.51C578.182 700.418 577.426 700.872 575.913 700.872H456.981C456.224 700.872 455.619 700.721 455.165 700.418C454.862 700.116 454.711 699.813 454.711 699.51C454.711 698.603 455.619 697.997 457.435 697.695L475.819 694.971C478.846 694.366 481.04 693.609 482.401 692.702C483.915 691.794 484.671 690.432 484.671 688.616V387.213H457.435C450.323 387.213 443.136 389.483 435.873 394.022C428.61 398.41 420.817 406.656 412.495 418.761C404.324 430.714 395.245 448.039 385.259 470.735C384.805 471.34 384.351 471.794 383.897 472.096C383.443 472.399 382.989 472.55 382.535 472.55C382.081 472.248 381.778 471.869 381.627 471.415C381.627 470.81 381.703 469.978 381.854 468.919L396.153 381.766C396.456 379.497 396.758 378.135 397.061 377.681C397.515 377.227 397.893 377 398.196 377C398.801 377 399.936 377.53 401.6 378.589C403.265 379.648 405.383 380.707 407.956 381.766C410.528 382.674 413.327 383.128 416.353 383.128Z" fill="#1A1814"/>
<path d="M793.835 386.305L775.45 389.029C772.575 389.483 770.381 390.239 768.868 391.298C767.355 392.206 766.598 393.568 766.598 395.384V687.254C766.598 690.583 767.506 693.004 769.322 694.517C771.289 695.879 774.088 696.56 777.72 696.56H820.163C827.426 696.56 834.386 695.122 841.044 692.248C847.853 689.373 854.587 684.153 861.244 676.587C868.054 669.022 875.014 658.204 882.126 644.132L904.369 600.102C904.671 599.497 904.974 599.043 905.276 598.74C905.73 598.286 906.184 598.135 906.638 598.286C907.244 598.437 907.622 598.816 907.773 599.421C908.076 600.026 908.076 600.858 907.773 601.917L886.438 702.234C885.984 704.352 885.606 705.638 885.303 706.092C885.152 706.697 884.849 707 884.395 707C883.487 707 882.05 706.47 880.083 705.411C878.116 704.352 875.544 703.293 872.366 702.234C869.188 701.326 865.33 700.872 860.791 700.872H675.357C674.6 700.872 673.995 700.721 673.541 700.418C673.239 700.116 673.087 699.813 673.087 699.51C673.087 698.603 673.995 697.997 675.811 697.695L694.195 694.971C697.222 694.366 699.416 693.609 700.777 692.702C702.291 691.794 703.047 690.432 703.047 688.616V395.384C703.047 393.568 702.291 392.206 700.777 391.298C699.416 390.239 697.222 389.483 694.195 389.029L675.811 386.305C673.995 386.003 673.087 385.398 673.087 384.49C673.087 384.187 673.239 383.884 673.541 383.582C673.995 383.279 674.6 383.128 675.357 383.128H794.289C795.045 383.128 795.575 383.279 795.877 383.582C796.331 383.884 796.558 384.187 796.558 384.49C796.558 385.398 795.65 386.003 793.835 386.305Z" fill="#1A1814"/>
</svg>
