<svg width="1080" height="1080" viewBox="0 0 1080 1080" fill="none" xmlns="http://www.w3.org/2000/svg">
<rect width="1080" height="1080" fill="#F7F5F1"/>
<circle cx="172.5" cy="540" r="25.5" fill="#00786E"/>
<path d="M244.29 479H322.95C324.21 479 325.38 478.82 326.46 478.46C327.54 478.04 328.47 477.62 329.25 477.2C330.09 476.78 330.63 476.57 330.87 476.57C331.05 476.57 331.2 476.66 331.32 476.84C331.44 477.02 331.56 477.56 331.68 478.46L337.35 513.02C337.47 513.44 337.5 513.77 337.44 514.01C337.38 514.19 337.26 514.34 337.08 514.46C336.9 514.46 336.72 514.4 336.54 514.28C336.36 514.16 336.18 513.98 336 513.74C332.1 504.26 328.53 497.18 325.29 492.5C322.05 487.76 318.96 484.61 316.02 483.05C313.14 481.43 310.26 480.62 307.38 480.62H296.58V600.14C296.58 600.86 296.88 601.4 297.48 601.76C298.08 602.12 298.95 602.42 300.09 602.66L307.38 603.74C308.1 603.86 308.46 604.1 308.46 604.46C308.46 604.82 308.16 605 307.56 605H260.4C260.1 605 259.86 604.94 259.68 604.82C259.56 604.7 259.5 604.58 259.5 604.46C259.5 604.1 259.86 603.86 260.58 603.74L267.87 602.66C269.07 602.42 269.94 602.12 270.48 601.76C271.08 601.4 271.38 600.86 271.38 600.14V480.62H260.58C257.76 480.62 254.91 481.52 252.03 483.32C249.15 485.06 246.06 488.33 242.76 493.13C239.52 497.87 235.92 504.74 231.96 513.74C231.78 513.98 231.6 514.16 231.42 514.28C231.24 514.4 231.06 514.46 230.88 514.46C230.7 514.34 230.58 514.19 230.52 514.01C230.52 513.77 230.55 513.44 230.61 513.02L236.28 478.46C236.4 477.56 236.52 477.02 236.64 476.84C236.82 476.66 236.97 476.57 237.09 476.57C237.33 476.57 237.78 476.78 238.44 477.2C239.1 477.62 239.94 478.04 240.96 478.46C241.98 478.82 243.09 479 244.29 479ZM363.918 560.09C363.918 552.17 365.058 545.57 367.338 540.29C369.618 534.95 372.528 530.93 376.068 528.23C379.668 525.53 383.418 524.18 387.318 524.18C391.758 524.18 395.178 525.59 397.578 528.41C399.978 531.17 401.178 535.13 401.178 540.29C401.178 544.79 400.128 548.12 398.028 550.28C395.928 552.44 393.318 553.52 390.198 553.52C387.318 553.52 385.158 552.71 383.718 551.09C382.278 549.47 381.498 547.07 381.378 543.89L381.198 541.01C381.198 539.15 380.838 537.74 380.118 536.78C379.398 535.82 378.138 535.34 376.338 535.34C374.478 535.34 372.678 536.27 370.938 538.13C369.198 539.99 367.758 542.81 366.618 546.59C365.538 550.31 364.998 554.99 364.998 560.63L363.918 560.09ZM364.998 526.07V555.95V599.51C364.998 600.17 365.178 600.77 365.538 601.31C365.958 601.85 366.528 602.18 367.248 602.3L376.158 603.74C376.518 603.8 376.728 603.89 376.788 604.01C376.908 604.13 376.968 604.28 376.968 604.46C376.968 604.58 376.878 604.7 376.698 604.82C376.578 604.94 376.398 605 376.158 605H336.198C335.958 605 335.748 604.94 335.568 604.82C335.388 604.64 335.298 604.49 335.298 604.37C335.298 604.25 335.388 604.13 335.568 604.01C335.808 603.83 336.108 603.71 336.468 603.65L341.328 602.84C342.108 602.72 342.648 602.45 342.948 602.03C343.308 601.55 343.488 601.01 343.488 600.41V534.08C343.488 533.66 343.398 533.33 343.218 533.09C343.098 532.79 342.798 532.64 342.318 532.64H336.198C336.078 532.64 335.928 532.58 335.748 532.46C335.628 532.34 335.568 532.22 335.568 532.1C335.568 531.92 335.628 531.77 335.748 531.65C335.928 531.53 336.138 531.44 336.378 531.38L362.298 525.17C362.718 525.05 363.048 524.99 363.288 524.99C363.528 524.93 363.768 524.9 364.008 524.9C364.368 524.9 364.608 525.02 364.728 525.26C364.908 525.5 364.998 525.77 364.998 526.07ZM452.685 596.63V595.82L451.695 596.72V538.76C451.695 534.44 450.795 531.14 448.995 528.86C447.195 526.58 444.615 525.44 441.255 525.44C437.535 525.44 434.745 526.37 432.885 528.23C431.025 530.09 430.095 532.22 430.095 534.62V541.91C430.095 544.91 429.045 547.43 426.945 549.47C424.845 551.51 422.115 552.53 418.755 552.53C416.415 552.53 414.465 551.84 412.905 550.46C411.405 549.02 410.655 546.86 410.655 543.98C410.655 540.8 411.915 537.71 414.435 534.71C416.955 531.65 420.675 529.13 425.595 527.15C430.575 525.17 436.665 524.18 443.865 524.18C453.705 524.18 461.055 526.25 465.915 530.39C470.835 534.47 473.295 540.29 473.295 547.85V594.56C473.295 596.66 473.655 598.19 474.375 599.15C475.095 600.05 475.995 600.5 477.075 600.5C478.155 600.5 479.115 600.17 479.955 599.51C480.795 598.85 481.335 597.74 481.575 596.18C481.575 596 481.605 595.88 481.665 595.82C481.785 595.7 481.905 595.64 482.025 595.64C482.145 595.64 482.235 595.7 482.295 595.82C482.415 595.88 482.475 596 482.475 596.18C482.475 597.32 481.935 598.7 480.855 600.32C479.835 601.94 478.155 603.41 475.815 604.73C473.475 605.99 470.355 606.62 466.455 606.62C461.655 606.62 458.145 605.69 455.925 603.83C453.765 601.97 452.685 599.57 452.685 596.63ZM406.155 587.54C406.155 581 408.855 575.75 414.255 571.79C419.655 567.77 428.235 565.76 439.995 565.76C443.655 565.76 446.655 566.15 448.995 566.93C451.395 567.65 453.615 568.55 455.655 569.63L454.935 570.26C452.895 569.3 450.825 568.55 448.725 568.01C446.625 567.47 444.255 567.2 441.615 567.2C437.115 567.2 433.635 568.7 431.175 571.7C428.775 574.7 427.575 578.93 427.575 584.39C427.575 589.67 428.745 593.69 431.085 596.45C433.425 599.15 436.455 600.5 440.175 600.5C442.695 600.5 445.155 599.93 447.555 598.79C450.015 597.59 452.055 595.88 453.675 593.66L454.665 594.2C452.025 598.22 448.395 601.31 443.775 603.47C439.215 605.57 434.295 606.62 429.015 606.62C422.235 606.62 416.715 604.85 412.455 601.31C408.255 597.71 406.155 593.12 406.155 587.54ZM545.399 594.65V594.2V481.43C545.399 481.07 545.309 480.8 545.129 480.62C544.949 480.38 544.649 480.26 544.229 480.26H538.379C538.079 480.26 537.869 480.2 537.749 480.08C537.629 479.96 537.569 479.81 537.569 479.63C537.569 479.39 537.629 479.24 537.749 479.18C537.929 479.06 538.109 478.97 538.289 478.91L564.119 471.71C564.659 471.59 565.019 471.53 565.199 471.53C565.439 471.47 565.679 471.44 565.919 471.44C566.219 471.44 566.459 471.53 566.639 471.71C566.819 471.89 566.909 472.13 566.909 472.43V600.05C566.909 600.83 567.059 601.46 567.359 601.94C567.719 602.42 568.289 602.72 569.069 602.84L574.019 603.74C574.379 603.74 574.619 603.83 574.739 604.01C574.859 604.13 574.919 604.28 574.919 604.46C574.919 604.58 574.859 604.7 574.739 604.82C574.619 604.94 574.439 605 574.199 605H547.739C547.019 605 546.449 604.79 546.029 604.37C545.609 603.95 545.399 603.29 545.399 602.39V594.65ZM488.339 567.83C488.339 558.83 490.019 551.09 493.379 544.61C496.739 538.07 501.239 533.03 506.879 529.49C512.579 525.95 518.879 524.18 525.779 524.18C531.719 524.18 536.579 525.35 540.359 527.69C544.199 529.97 547.259 533.12 549.539 537.14L547.919 537.95C546.239 534.59 543.959 531.95 541.079 530.03C538.199 528.05 534.779 527.06 530.819 527.06C526.979 527.06 523.499 528.32 520.379 530.84C517.259 533.36 514.769 537.47 512.909 543.17C511.049 548.81 510.119 556.37 510.119 565.85C510.119 574.19 510.899 581.03 512.459 586.37C514.079 591.71 516.269 595.67 519.029 598.25C521.849 600.83 525.059 602.12 528.659 602.12C531.659 602.12 534.719 601.28 537.839 599.6C540.959 597.92 543.959 595.16 546.839 591.32L547.829 592.4C543.509 597.62 539.309 601.34 535.229 603.56C531.149 605.72 526.589 606.8 521.549 606.8C515.069 606.8 509.309 605.24 504.269 602.12C499.289 598.94 495.389 594.44 492.569 588.62C489.749 582.8 488.339 575.87 488.339 567.83ZM651.295 558.47C651.295 559.01 651.115 559.43 650.755 559.73C650.455 560.03 649.945 560.18 649.225 560.18H593.515V558.65H628.345C629.365 558.65 629.875 558.08 629.875 556.94C629.875 546.26 628.435 538.37 625.555 533.27C622.735 528.17 619.285 525.62 615.205 525.62C611.845 525.62 608.935 526.79 606.475 529.13C604.015 531.41 602.095 534.92 600.715 539.66C599.395 544.4 598.735 550.43 598.735 557.75C598.735 570.11 601.315 579.38 606.475 585.56C611.635 591.74 618.415 594.83 626.815 594.83C632.995 594.83 638.215 593.12 642.475 589.7C646.795 586.22 649.195 581.54 649.675 575.66C649.735 575.42 649.825 575.27 649.945 575.21C650.065 575.09 650.155 575.03 650.215 575.03C650.335 575.03 650.455 575.09 650.575 575.21C650.695 575.33 650.755 575.54 650.755 575.84C650.395 581.78 648.655 587.09 645.535 591.77C642.475 596.39 638.395 600.05 633.295 602.75C628.255 605.45 622.585 606.8 616.285 606.8C608.845 606.8 602.305 605.15 596.665 601.85C591.085 598.55 586.705 593.93 583.525 587.99C580.345 581.99 578.755 575 578.755 567.02C578.755 558.5 580.345 551.03 583.525 544.61C586.765 538.19 591.325 533.18 597.205 529.58C603.085 525.98 609.955 524.18 617.815 524.18C624.595 524.18 630.475 525.68 635.455 528.68C640.495 531.62 644.395 535.67 647.155 540.83C649.915 545.99 651.295 551.87 651.295 558.47ZM708.27 480.26L700.98 481.34C699.84 481.52 698.97 481.82 698.37 482.24C697.77 482.6 697.47 483.14 697.47 483.86V599.6C697.47 600.92 697.83 601.88 698.55 602.48C699.33 603.02 700.44 603.29 701.88 603.29H718.71C721.59 603.29 724.35 602.72 726.99 601.58C729.69 600.44 732.36 598.37 735 595.37C737.7 592.37 740.46 588.08 743.28 582.5L752.1 565.04C752.22 564.8 752.34 564.62 752.46 564.5C752.64 564.32 752.82 564.26 753 564.32C753.24 564.38 753.39 564.53 753.45 564.77C753.57 565.01 753.57 565.34 753.45 565.76L744.99 605.54C744.81 606.38 744.66 606.89 744.54 607.07C744.48 607.31 744.36 607.43 744.18 607.43C743.82 607.43 743.25 607.22 742.47 606.8C741.69 606.38 740.67 605.96 739.41 605.54C738.15 605.18 736.62 605 734.82 605H661.29C660.99 605 660.75 604.94 660.57 604.82C660.45 604.7 660.39 604.58 660.39 604.46C660.39 604.1 660.75 603.86 661.47 603.74L668.76 602.66C669.96 602.42 670.83 602.12 671.37 601.76C671.97 601.4 672.27 600.86 672.27 600.14V483.86C672.27 483.14 671.97 482.6 671.37 482.24C670.83 481.82 669.96 481.52 668.76 481.34L661.47 480.26C660.75 480.14 660.39 479.9 660.39 479.54C660.39 479.42 660.45 479.3 660.57 479.18C660.75 479.06 660.99 479 661.29 479H708.45C708.75 479 708.96 479.06 709.08 479.18C709.26 479.3 709.35 479.42 709.35 479.54C709.35 479.9 708.99 480.14 708.27 480.26ZM799.645 524.18C807.565 524.18 814.585 525.95 820.705 529.49C826.825 533.03 831.625 537.95 835.105 544.25C838.585 550.49 840.325 557.69 840.325 565.85C840.325 573.89 838.525 581 834.925 587.18C831.385 593.3 826.465 598.1 820.165 601.58C813.865 605.06 806.665 606.8 798.565 606.8C790.645 606.8 783.625 605.09 777.505 601.67C771.445 598.19 766.675 593.39 763.195 587.27C759.775 581.09 758.065 573.95 758.065 565.85C758.065 557.75 759.835 550.58 763.375 544.34C766.915 538.1 771.805 533.18 778.045 529.58C784.345 525.98 791.545 524.18 799.645 524.18ZM804.055 605.27C807.775 604.91 810.805 603.11 813.145 599.87C815.545 596.63 817.135 591.98 817.915 585.92C818.755 579.86 818.665 572.45 817.645 563.69C816.625 554.81 815.035 547.52 812.875 541.82C810.715 536.06 808.075 531.86 804.955 529.22C801.835 526.52 798.325 525.38 794.425 525.8C790.585 526.16 787.495 527.99 785.155 531.29C782.815 534.59 781.285 539.27 780.565 545.33C779.845 551.39 779.995 558.74 781.015 567.38C782.035 576.08 783.625 583.31 785.785 589.07C788.005 594.77 790.675 599 793.795 601.76C796.915 604.46 800.335 605.63 804.055 605.27ZM899.648 601.58C907.448 603.02 913.508 604.7 917.828 606.62C922.208 608.54 925.238 610.85 926.918 613.55C928.658 616.31 929.528 619.64 929.528 623.54C929.528 631.1 925.958 637.28 918.818 642.08C911.678 646.88 901.568 649.28 888.488 649.28C878.468 649.28 870.338 648.41 864.098 646.67C857.858 644.99 853.268 642.68 850.328 639.74C847.388 636.8 845.918 633.41 845.918 629.57C845.918 624.59 847.988 620.54 852.128 617.42C856.328 614.36 863.318 612.2 873.098 610.94L873.278 611.93C869.138 612.71 866.018 614.15 863.918 616.25C861.818 618.41 860.768 620.9 860.768 623.72C860.768 630.8 863.138 636.53 867.878 640.91C872.618 645.29 879.788 647.48 889.387 647.48C894.548 647.48 898.808 646.94 902.168 645.86C905.588 644.78 908.138 643.13 909.818 640.91C911.558 638.75 912.428 636.08 912.428 632.9C912.428 630.44 911.738 628.28 910.358 626.42C909.038 624.56 906.608 622.88 903.068 621.38C899.588 619.88 894.608 618.44 888.128 617.06C880.808 615.44 874.988 613.85 870.668 612.29C866.408 610.73 863.378 608.96 861.578 606.98C859.778 605.06 858.878 602.63 858.878 599.69C858.878 597.11 859.568 594.8 860.948 592.76C862.328 590.66 864.578 588.86 867.697 587.36C870.878 585.86 875.168 584.66 880.568 583.76V584.48C879.248 584.9 878.108 585.62 877.148 586.64C876.188 587.6 875.708 588.74 875.708 590.06C875.708 591.5 876.278 592.76 877.418 593.84C878.558 594.92 880.838 596.06 884.258 597.26C887.678 598.46 892.808 599.9 899.648 601.58ZM900.728 528.77L901.448 527.24C903.788 522.26 906.488 518.24 909.548 515.18C912.608 512.06 916.388 510.5 920.888 510.5C924.788 510.5 927.818 511.61 929.978 513.83C932.138 516.05 933.218 518.87 933.218 522.29C933.218 525.11 932.498 527.33 931.058 528.95C929.678 530.57 927.638 531.38 924.938 531.38C923.138 531.38 921.608 530.84 920.348 529.76C919.148 528.68 918.038 527.45 917.018 526.07C916.058 524.63 915.068 523.4 914.048 522.38C913.028 521.3 911.858 520.76 910.538 520.76C908.798 520.76 907.268 521.48 905.948 522.92C904.628 524.3 903.338 526.19 902.078 528.59L900.728 528.77ZM923.678 554.15C923.678 560.15 922.058 565.52 918.818 570.26C915.638 574.94 911.258 578.63 905.678 581.33C900.098 584.03 893.828 585.38 886.868 585.38C879.308 585.38 872.738 584.06 867.158 581.42C861.578 578.78 857.228 575.24 854.108 570.8C850.988 566.36 849.428 561.44 849.428 556.04C849.428 549.98 850.958 544.55 854.018 539.75C857.138 534.95 861.548 531.17 867.248 528.41C873.008 525.59 879.848 524.18 887.768 524.18C895.148 524.18 901.538 525.56 906.938 528.32C912.338 531.08 916.478 534.74 919.358 539.3C922.238 543.8 923.678 548.75 923.678 554.15ZM883.088 526.07C880.328 526.19 877.928 527.42 875.888 529.76C873.908 532.1 872.438 535.37 871.478 539.57C870.578 543.77 870.398 548.66 870.938 554.24C871.478 560.24 872.618 565.43 874.358 569.81C876.098 574.19 878.288 577.58 880.928 579.98C883.568 582.32 886.418 583.4 889.478 583.22C893.738 583.04 897.008 580.43 899.288 575.39C901.628 570.35 902.408 563.6 901.628 555.14C900.848 545.96 898.748 538.76 895.328 533.54C891.908 528.32 887.828 525.83 883.088 526.07Z" fill="#1A1814"/>
</svg>
