<svg width="32" height="32" viewBox="0 0 32 32" fill="none" xmlns="http://www.w3.org/2000/svg">
<rect width="32" height="32" rx="9" fill="#FF2E00"/>
<g clip-path="url(#clip0_14554_3735)">
<path d="M20.4652 11.5362C20.4652 7.71169 17.3562 4.60156 13.5348 4.60156C9.71338 4.60156 6.6 7.71169 6.6 11.5362V25.4016H20.4652C24.2882 25.4016 27.4 22.291 27.4 18.4669C27.4 14.6427 24.2882 11.5322 20.4652 11.5322V11.5362Z" fill="white"/>
<path d="M19.2425 12.759H7.82417V24.1772H19.2425V12.759Z" fill="#004D23"/>
<path d="M13.534 14.3082C11.2371 14.3074 9.37445 16.1686 9.37333 18.4655C9.37222 20.7624 11.2339 22.6252 13.5308 22.6259C15.8277 22.6266 17.6896 20.7664 17.6912 18.4703C17.6929 16.1741 15.8325 14.31 13.5357 14.3082H13.534Z" fill="white"/>
<path d="M20.464 12.759V24.1772C23.6169 24.1507 26.1515 21.5734 26.1253 18.42C26.0992 15.3045 23.5797 12.7848 20.464 12.759Z" fill="#FF2E00"/>
<path d="M19.2425 11.536C19.2161 8.38292 16.6386 5.84851 13.4852 5.87471C10.3698 5.90078 7.85024 8.42084 7.82417 11.536H19.2425Z" fill="#FF2E00"/>
<path d="M13.5345 21.4008C15.155 21.4008 16.4687 20.0871 16.4687 18.4666C16.4687 16.846 15.155 15.5323 13.5345 15.5323C11.9139 15.5323 10.6002 16.846 10.6002 18.4666C10.6002 20.0871 11.9139 21.4008 13.5345 21.4008Z" fill="#FF2E00"/>
</g>
<defs>
<clipPath id="clip0_14554_3735">
<rect width="20.8" height="20.8" fill="white" transform="translate(6.6 4.60156)"/>
</clipPath>
</defs>
</svg>
